<svg xmlns="http://www.w3.org/2000/svg" width="48" height="46" viewBox="0 0 48 46">
    <g fill="none" fill-rule="evenodd">
        <path d="M.727 0h46v46h-46z"/>
        <path fill="#FFF" fill-rule="nonzero" d="M42.441 17.143h-.914C40.556 14.17 37.756 12 34.441 12H8.156a7.414 7.414 0 0 0-7.429 7.429v9.142A7.414 7.414 0 0 0 8.156 36H34.44c3.315 0 6.115-2.171 7.086-5.143h.914a5.121 5.121 0 0 0 5.143-5.143v-3.428a5.121 5.121 0 0 0-5.143-5.143zm-4 11.428c0 2.229-1.771 4-4 4H8.156c-2.229 0-4-1.771-4-4V19.43c0-2.229 1.771-4 4-4H34.44c2.229 0 4 1.771 4 4v9.142zm5.715-2.857c0 .972-.743 1.715-1.715 1.715h-.571V20.57h.571c.972 0 1.715.743 1.715 1.715v3.428z"/>
        <path fill="#FFF" fill-rule="nonzero" d="M17.41 19c-.954 0-1.683.73-1.683 1.683v6.17c0 .954.73 1.684 1.683 1.684.954 0 1.683-.73 1.683-1.683v-6.171c0-.954-.73-1.683-1.683-1.683zM10.41 19c-.954 0-1.683.73-1.683 1.683v6.17c0 .954.73 1.684 1.683 1.684.954 0 1.683-.73 1.683-1.683v-6.171c0-.954-.73-1.683-1.683-1.683zM24.41 19c-.954 0-1.683.73-1.683 1.683v6.17c0 .954.73 1.684 1.683 1.684.954 0 1.683-.73 1.683-1.683v-6.171c0-.954-.73-1.683-1.683-1.683z"/>
        <path fill="#FFF" fill-rule="nonzero" d="M31.41 19c-.954 0-1.683.73-1.683 1.683v6.17c0 .954.73 1.684 1.683 1.684.954 0 1.683-.73 1.683-1.683v-6.171c0-.954-.73-1.683-1.683-1.683z" opacity=".372"/>
    </g>
</svg>
