<svg xmlns="http://www.w3.org/2000/svg" width="16" height="16" viewBox="0 0 16 16">
    <g fill="none" fill-rule="evenodd">
        <path d="M0 0h16v16H0z"/>
        <path fill="#A3A3A3" fill-rule="nonzero" d="M14.244 5.756h-.312A2.55 2.55 0 0 0 11.512 4H2.537A2.532 2.532 0 0 0 0 6.537v3.122a2.532 2.532 0 0 0 2.537 2.536h8.975a2.55 2.55 0 0 0 2.42-1.756h.312c.976 0 1.756-.78 1.756-1.756v-1.17c0-.976-.78-1.757-1.756-1.757zM12.878 9.66c0 .76-.605 1.365-1.366 1.365H2.537A1.357 1.357 0 0 1 1.17 9.66V6.537c0-.761.605-1.366 1.366-1.366h8.975c.761 0 1.366.605 1.366 1.366v3.122zm1.951-.976a.575.575 0 0 1-.585.585h-.195V6.927h.195c.332 0 .585.253.585.585v1.17z"/>
        <path fill="#A3A3A3" fill-rule="nonzero" d="M5.463 6.439a.575.575 0 0 0-.585.585v2.147c0 .331.254.585.585.585a.575.575 0 0 0 .586-.585V7.024a.575.575 0 0 0-.586-.585zM3.122 6.439a.575.575 0 0 0-.585.585v2.147c0 .331.253.585.585.585a.575.575 0 0 0 .585-.585V7.024a.575.575 0 0 0-.585-.585zM7.805 6.439a.575.575 0 0 0-.585.585v2.147c0 .331.253.585.585.585a.575.575 0 0 0 .585-.585V7.024a.575.575 0 0 0-.585-.585z"/>
    </g>
</svg>
