<svg xmlns="http://www.w3.org/2000/svg" width="48" height="48" viewBox="0 0 48 48">
    <g fill="none" fill-rule="evenodd">
        <path d="M0 0h48v48H0z" opacity=".276"/>
        <path fill="#FFF" fill-rule="nonzero" d="M7.731 14.528C6.238 14.528 5 15.745 5 17.234v13.58c0 1.489 1.238 2.723 2.731 2.723h28.44c1.493 0 2.73-1.234 2.73-2.723v-2.558h3.18c.584 0 1.058-.472 1.059-1.056v-6.336c0-.583-.475-1.056-1.06-1.056h-3.178v-2.574c0-1.489-1.238-2.706-2.732-2.706H7.731zm0 2.112h28.44c.356 0 .612.239.612.594v13.58a.59.59 0 0 1-.613.61H7.731a.59.59 0 0 1-.612-.61v-13.58c0-.355.256-.594.612-.594zm31.17 5.28h2.12v4.224H38.9V21.92z"/>
        <path fill="#B2D234" d="M11.113 18.208c-.666.06-1.166.525-1.152 1.072v9.504c-.006.381.239.736.641.928.403.191.901.191 1.304 0 .402-.192.647-.547.64-.928V19.28c.009-.304-.144-.596-.419-.802a1.487 1.487 0 0 0-1.014-.27zM16.384 18.192c-.666.06-1.166.526-1.151 1.073v9.504c-.007.381.238.735.64.927.403.192.901.192 1.304 0s.648-.546.641-.927v-9.504c.008-.304-.145-.596-.42-.802a1.487 1.487 0 0 0-1.014-.27zM26.927 18.192c-.666.06-1.166.526-1.152 1.073v9.504c-.006.381.239.735.641.927.403.192.901.192 1.304 0s.647-.546.64-.927v-9.504c.009-.304-.144-.596-.419-.802a1.487 1.487 0 0 0-1.014-.27zM21.655 18.192c-.666.06-1.165.526-1.15 1.073v9.504c-.008.381.237.735.64.927.403.192.9.192 1.303 0 .403-.192.648-.546.641-.927v-9.504c.009-.304-.144-.596-.42-.802a1.487 1.487 0 0 0-1.014-.27z"/>
        <path fill="#131413" d="M32.198 18.192c-.666.06-1.166.526-1.151 1.073v9.504c-.007.381.238.735.64.927.404.192.902.192 1.304 0 .403-.192.648-.546.641-.927v-9.504c.008-.304-.145-.596-.42-.802a1.487 1.487 0 0 0-1.014-.27z"/>
    </g>
</svg>
