<svg xmlns="http://www.w3.org/2000/svg" width="82" height="44" viewBox="0 0 82 44">
    <g fill="none" fill-rule="evenodd">
        <path d="M0 0h82v44H0z" opacity=".352"/>
        <path fill="#F4F4F4" fill-rule="nonzero" d="M5.872 2.135C2.662 2.135 0 4.752 0 7.953V37.15c0 3.2 2.661 5.854 5.872 5.854h61.144c3.212 0 5.873-2.653 5.873-5.854v-5.499h6.833A2.274 2.274 0 0 0 82 29.381V15.758c0-1.254-1.02-2.27-2.278-2.27H72.89V7.953c0-3.2-2.661-5.818-5.873-5.818H5.872zm0 4.541h61.144c.767 0 1.317.513 1.317 1.277V37.15c0 .764-.55 1.313-1.317 1.313H5.872c-.766 0-1.316-.55-1.316-1.313V7.953c0-.764.55-1.277 1.316-1.277zM72.89 18.028h4.555v9.082H72.89v-9.082z"/>
        <path fill="#B2D234" d="M13.142 10.046c-1.432.129-2.506 1.13-2.475 2.306v20.435c-.014.818.512 1.58 1.378 1.993a3.325 3.325 0 0 0 2.802 0c.866-.413 1.393-1.175 1.378-1.993V12.352c.018-.654-.311-1.282-.902-1.723-.59-.442-1.385-.654-2.18-.583zM24.476 10.014c-1.432.128-2.507 1.13-2.476 2.306v20.434c-.014.819.513 1.58 1.378 1.993a3.325 3.325 0 0 0 2.803 0c.866-.413 1.392-1.174 1.378-1.993V12.32c.017-.654-.312-1.282-.902-1.724-.59-.442-1.386-.654-2.181-.582zM47.143 10.014c-1.432.128-2.507 1.13-2.476 2.306v20.434c-.014.819.513 1.58 1.378 1.993a3.325 3.325 0 0 0 2.803 0c.865-.413 1.392-1.174 1.378-1.993V12.32c.017-.654-.312-1.282-.902-1.724-.59-.442-1.386-.654-2.181-.582zM35.81 10.014c-1.433.128-2.507 1.13-2.476 2.306v20.434c-.014.819.512 1.58 1.378 1.993a3.325 3.325 0 0 0 2.802 0c.866-.413 1.393-1.174 1.378-1.993V12.32c.018-.654-.311-1.282-.902-1.724-.59-.442-1.385-.654-2.18-.582zM58.476 10.014c-1.432.128-2.506 1.13-2.475 2.306v20.434c-.015.819.512 1.58 1.378 1.993a3.325 3.325 0 0 0 2.802 0c.866-.413 1.393-1.174 1.378-1.993V12.32c.018-.654-.311-1.282-.902-1.724-.59-.442-1.385-.654-2.181-.582z"/>
    </g>
</svg>
