<svg xmlns="http://www.w3.org/2000/svg" width="47" height="46" viewBox="0 0 47 46">
    <g fill="none" fill-rule="evenodd">
        <path d="M.733 0h46v46h-46z"/>
        <path fill="#FFF" fill-rule="nonzero" d="M27.756 16.01a1.918 1.918 0 0 0-2.603.86l-3.866 7.724a1.99 1.99 0 0 0 .845 2.652c.281.147.578.217.875.217.708 0 1.385-.396 1.72-1.078l3.866-7.724c.495-.977.114-2.163-.837-2.652z" opacity=".37"/>
        <path fill="#FFF" fill-rule="nonzero" d="M34.544 9.69a18.972 18.972 0 0 0-14.102-3.73C11.79 7.1 4.811 14.31 3.814 23.143c-.685 6.118 1.34 11.996 5.532 16.269a1.908 1.908 0 0 0 2.733 0 1.997 1.997 0 0 0 0-2.784c-3.41-3.474-5.03-8.274-4.392-13.26.868-6.809 6.203-12.377 12.862-13.44 4.27-.682 8.272.443 11.415 2.73a.752.752 0 0 0 .99-.07l1.667-1.698c.327-.349.296-.922-.077-1.202zM38.517 13.737a.771.771 0 0 0-1.172-.07l-1.667 1.699a.788.788 0 0 0-.068 1.008 15.826 15.826 0 0 1 2.869 9.112c0 4.21-1.606 8.165-4.528 11.143a1.997 1.997 0 0 0 0 2.784c.38.388 1.811.961 2.732 0 3.6-3.769 5.662-8.67 5.662-13.927 0-4.405-1.423-8.469-3.828-11.749z"/>
    </g>
</svg>
