<svg xmlns="http://www.w3.org/2000/svg" xmlns:xlink="http://www.w3.org/1999/xlink" width="120" height="120" viewBox="0 0 120 120">
    <defs>
        <filter id="a" width="118.9%" height="115%" x="-9.1%" y="-5%" filterUnits="objectBoundingBox">
            <feOffset dy="2" in="SourceAlpha" result="shadowOffsetOuter1"/>
            <feGaussianBlur in="shadowOffsetOuter1" result="shadowBlurOuter1" stdDeviation="2"/>
            <feColorMatrix in="shadowBlurOuter1" result="shadowMatrixOuter1" values="0 0 0 0 0.864786489 0 0 0 0 1 0 0 0 0 0.127998737 0 0 0 0.5 0"/>
            <feMerge>
                <feMergeNode in="shadowMatrixOuter1"/>
                <feMergeNode in="SourceGraphic"/>
            </feMerge>
        </filter>
        <path id="b" d="M21.679.001v21.476H.158V0h21.52z"/>
        <path id="d" d="M21.679.001v21.476H.158V0h21.52z"/>
        <path id="f" d="M21.679.001v21.476H.158V0h21.52z"/>
        <path id="h" d="M0 .167v68.558h43.966V.167H0z"/>
    </defs>
    <g fill="none" fill-rule="evenodd">
        <g filter="url(#a)" transform="translate(41 10)">
            <g transform="translate(52.805 18.87)">
                <mask id="c" fill="#fff">
                    <use xlink:href="#b"/>
                </mask>
                <path fill="#B2D234" d="M1.564 21.477a1.404 1.404 0 0 1-1.406-1.403c0-.774.63-1.402 1.406-1.402 9.541 0 17.304-7.747 17.304-17.268 0-.775.629-1.403 1.405-1.403.777 0 1.406.628 1.406 1.403 0 11.068-9.024 20.073-20.115 20.073" mask="url(#c)"/>
            </g>
            <path fill="#B2D234" d="M54.369 32.375a1.404 1.404 0 0 1-1.406-1.403c0-.774.63-1.402 1.406-1.402 5.137 0 9.316-4.17 9.316-9.296 0-.775.629-1.403 1.405-1.403s1.406.628 1.406 1.403c0 6.672-5.44 12.101-12.127 12.101M54.369 15.665a4.618 4.618 0 0 0-4.618 4.609 4.618 4.618 0 0 0 9.236 0 4.618 4.618 0 0 0-4.618-4.609m0 2.805c.998 0 1.807.808 1.807 1.804s-.809 1.803-1.807 1.803a1.805 1.805 0 0 1-1.807-1.803c0-.996.809-1.804 1.807-1.804"/>
            <g transform="translate(52.805 18.87)">
                <mask id="e" fill="#fff">
                    <use xlink:href="#d"/>
                </mask>
                <path fill="#B2D234" d="M1.564 21.477a1.404 1.404 0 0 1-1.406-1.403c0-.774.63-1.402 1.406-1.402 9.541 0 17.304-7.747 17.304-17.268 0-.775.629-1.403 1.405-1.403.777 0 1.406.628 1.406 1.403 0 11.068-9.024 20.073-20.115 20.073" mask="url(#e)"/>
            </g>
            <path fill="#B2D234" d="M54.369 32.375a1.404 1.404 0 0 1-1.406-1.403c0-.774.63-1.402 1.406-1.402 5.137 0 9.316-4.17 9.316-9.296 0-.775.629-1.403 1.405-1.403s1.406.628 1.406 1.403c0 6.672-5.44 12.101-12.127 12.101M54.369 15.665a4.618 4.618 0 0 0-4.618 4.609 4.618 4.618 0 0 0 9.236 0 4.618 4.618 0 0 0-4.618-4.609m0 2.805c.998 0 1.807.808 1.807 1.804s-.809 1.803-1.807 1.803a1.805 1.805 0 0 1-1.807-1.803c0-.996.809-1.804 1.807-1.804"/>
            <g transform="translate(52.805 18.87)">
                <mask id="g" fill="#fff">
                    <use xlink:href="#f"/>
                </mask>
                <path fill="#B2D234" d="M1.564 21.477a1.404 1.404 0 0 1-1.406-1.403c0-.774.63-1.402 1.406-1.402 9.541 0 17.304-7.747 17.304-17.268 0-.775.629-1.403 1.405-1.403.777 0 1.406.628 1.406 1.403 0 11.068-9.024 20.073-20.115 20.073" mask="url(#g)"/>
            </g>
            <path fill="#B2D234" d="M54.369 32.375a1.404 1.404 0 0 1-1.406-1.403c0-.774.63-1.402 1.406-1.402 5.137 0 9.316-4.17 9.316-9.296 0-.775.629-1.403 1.405-1.403s1.406.628 1.406 1.403c0 6.672-5.44 12.101-12.127 12.101M54.369 15.665a4.618 4.618 0 0 0-4.618 4.609 4.618 4.618 0 0 0 9.236 0 4.618 4.618 0 0 0-4.618-4.609m0 2.805c.998 0 1.807.808 1.807 1.804s-.809 1.803-1.807 1.803a1.805 1.805 0 0 1-1.807-1.803c0-.996.809-1.804 1.807-1.804M35.66 21.676a1.404 1.404 0 0 1-1.406-1.402C34.254 9.205 43.277.2 54.369.2a1.404 1.404 0 0 1 0 2.805c-9.542 0-17.304 7.747-17.304 17.269 0 .774-.63 1.402-1.406 1.402"/>
            <path fill="#B2D234" d="M43.648 21.676a1.404 1.404 0 0 1-1.406-1.402c0-6.673 5.44-12.102 12.127-12.102a1.404 1.404 0 1 1 0 2.805c-5.137 0-9.316 4.17-9.316 9.297 0 .774-.629 1.402-1.405 1.402"/>
            <g>
                <g transform="translate(0 30.09)">
                    <mask id="i" fill="#fff">
                        <use xlink:href="#h"/>
                    </mask>
                    <path fill="#B2D234" d="M37.542 68.725H6.425C2.882 68.725 0 65.849 0 62.313V6.58C0 3.043 2.882.167 6.425.167h1.871a1.404 1.404 0 0 1 0 2.805H6.425A3.614 3.614 0 0 0 2.81 6.58v55.734a3.614 3.614 0 0 0 3.614 3.607h31.117a3.614 3.614 0 0 0 3.613-3.607V6.58a3.614 3.614 0 0 0-3.613-3.607H14.598a1.404 1.404 0 0 1-1.405-1.402c0-.775.63-1.403 1.405-1.403h22.944c3.542 0 6.424 2.876 6.424 6.412v55.734c0 3.536-2.882 6.412-6.424 6.412" mask="url(#i)"/>
                </g>
                <path fill="#B2D234" d="M22.681 77.965a4.053 4.053 0 0 1-4.053-4.045V61.468H14.94a4.053 4.053 0 0 1-4.053-4.044 4.053 4.053 0 0 1 4.053-4.045h15.483a4.053 4.053 0 0 1 4.053 4.045 4.053 4.053 0 0 1-4.053 4.044H25.53a1.203 1.203 0 0 1 0-2.404h4.893c.906 0 1.644-.736 1.644-1.64 0-.905-.738-1.64-1.644-1.64H14.94c-.906 0-1.644.735-1.644 1.64 0 .904.738 1.64 1.644 1.64h4.893c.666 0 1.205.538 1.205 1.202V73.92a1.644 1.644 0 0 0 3.287 0v-9.943c0-.664.54-1.202 1.205-1.202s1.205.538 1.205 1.202v9.943a4.054 4.054 0 0 1-4.054 4.045"/>
            </g>
        </g>
        <path d="M0 0h120v120H0z" opacity=".3"/>
    </g>
</svg>
