<svg xmlns="http://www.w3.org/2000/svg" width="16" height="16" viewBox="0 0 16 16">
    <g fill="none" fill-rule="evenodd">
        <path d="M0 0h16v16H0z"/>
        <path d="M9.765 8.353H4.824c-.212 0-.353.141-.353.353s.14.353.353.353h4.94c.212 0 .354-.141.354-.353s-.142-.353-.353-.353zM9.765 10.118H4.824c-.212 0-.353.14-.353.353 0 .211.14.353.353.353h4.94c.212 0 .354-.142.354-.353 0-.212-.142-.353-.353-.353zM9.765 6.588H4.824c-.212 0-.353.141-.353.353s.14.353.353.353h4.94c.212 0 .354-.141.354-.353s-.142-.353-.353-.353z"/>
        <path fill="#B2D234" fill-rule="nonzero" d="M10.47 3.412H4.119C2.918 3.412 2 4.329 2 5.529v6.353C2 13.012 2.918 14 4.118 14h6.353c1.129 0 2.117-.988 2.117-2.118V5.53c0-1.129-.988-2.117-2.117-2.117zm-.705 7.412H4.824c-.212 0-.353-.142-.353-.353 0-.212.14-.353.353-.353h4.94c.212 0 .354.14.354.353 0 .211-.142.353-.353.353zm0-1.765H4.824c-.212 0-.353-.141-.353-.353s.14-.353.353-.353h4.94c.212 0 .354.141.354.353s-.142.353-.353.353zm0-1.765H4.824c-.212 0-.353-.141-.353-.353s.14-.353.353-.353h4.94c.212 0 .354.141.354.353s-.142.353-.353.353z"/>
        <path fill="#B2D234" fill-rule="nonzero" d="M10.47 2H5.177c-.211 0-.352.141-.352.353s.14.353.352.353h5.295a2.832 2.832 0 0 1 2.823 2.823v5.295c0 .211.141.352.353.352s.353-.14.353-.352V5.529A3.495 3.495 0 0 0 10.47 2z"/>
    </g>
</svg>
