<svg xmlns="http://www.w3.org/2000/svg" width="47" height="46" viewBox="0 0 47 46">
    <defs>
        <linearGradient id="a" x1="80.575%" x2="24.476%" y1="5.839%" y2="100%">
            <stop offset="0%" stop-color="#BCE959"/>
            <stop offset="100%" stop-color="#85E246"/>
        </linearGradient>
    </defs>
    <g fill="none" fill-rule="evenodd">
        <path d="M.733 0h46v46h-46z"/>
        <path fill="url(#a)" fill-rule="nonzero" d="M28.023 16.01a1.918 1.918 0 0 0-2.603.86l-3.866 7.724a1.99 1.99 0 0 0 .845 2.652c.281.147.578.217.875.217.708 0 1.385-.396 1.72-1.078l3.866-7.724c.495-.977.114-2.163-.837-2.652z" transform="translate(-.267)"/>
        <path fill="url(#a)" fill-rule="nonzero" d="M34.811 9.69A18.972 18.972 0 0 0 20.71 5.96C12.056 7.1 5.077 14.31 4.08 23.143c-.684 6.118 1.34 11.996 5.533 16.269a1.908 1.908 0 0 0 2.732 0 1.997 1.997 0 0 0 0-2.784c-3.41-3.474-5.03-8.274-4.39-13.26.867-6.809 6.202-12.377 12.86-13.44 4.27-.682 8.273.443 11.416 2.73a.752.752 0 0 0 .99-.07l1.666-1.698c.328-.349.297-.922-.076-1.202zM38.784 13.737a.771.771 0 0 0-1.172-.07l-1.667 1.699a.788.788 0 0 0-.068 1.008 15.826 15.826 0 0 1 2.869 9.112c0 4.21-1.606 8.165-4.528 11.143a1.997 1.997 0 0 0 0 2.784c.38.388 1.81.961 2.732 0 3.6-3.769 5.662-8.67 5.662-13.927 0-4.405-1.423-8.469-3.828-11.749z" transform="translate(-.267)"/>
    </g>
</svg>
