<svg xmlns="http://www.w3.org/2000/svg" width="16" height="16" viewBox="0 0 16 16">
    <g fill="none" fill-rule="evenodd">
        <path d="M0 0h16v16H0z"/>
        <path fill="#A3A3A3" fill-rule="nonzero" d="M9.4 5.568a.667.667 0 0 0-.906.3L7.149 8.554a.692.692 0 0 0 .294.923.666.666 0 0 0 .903-.3L9.69 6.491a.687.687 0 0 0-.29-.923z"/>
        <path fill="#A3A3A3" fill-rule="nonzero" d="M11.76 3.37a6.599 6.599 0 0 0-4.905-1.297c-3.01.396-5.437 2.905-5.784 5.977-.238 2.128.466 4.173 1.925 5.659a.664.664 0 0 0 .95 0 .695.695 0 0 0 0-.968C2.76 11.532 2.196 9.863 2.42 8.128 2.72 5.76 4.576 3.823 6.892 3.454a5.272 5.272 0 0 1 3.971.95c.106.077.252.07.344-.025l.58-.59c.114-.122.103-.322-.027-.419zM13.142 4.778a.268.268 0 0 0-.407-.024l-.58.59a.274.274 0 0 0-.024.351c.627.896.998 1.988.998 3.17 0 1.464-.559 2.84-1.575 3.876a.695.695 0 0 0 0 .968c.132.135.63.334.95 0 1.252-1.311 1.97-3.016 1.97-4.844a6.887 6.887 0 0 0-1.332-4.087z"/>
    </g>
</svg>
