<svg xmlns="http://www.w3.org/2000/svg" width="46" height="46" viewBox="0 0 46 46">
    <g fill="none" fill-rule="evenodd">
        <path d="M0 0h46v46H0z"/>
        <path fill="#FFF" fill-rule="nonzero" stroke="#FFF" stroke-width=".8" d="M35.716 10.633c-2.033-4.88-6.542-8.218-11.724-8.68-5.183-.463-10.193 2.025-13.028 6.47a14.57 14.57 0 0 0-.511 14.757 14.332 14.332 0 0 0 4.615 5.043l.574.443v.062c.027.118.04.239.039.36v2.703a2.515 2.515 0 0 0 .716 1.766c.46.468 1.083.73 1.733.73h9.247c1.351 0 2.447-1.115 2.45-2.492V29.07c-.002-.121.011-.242.038-.36v-.061l.757-.563c5.567-3.835 7.7-11.142 5.094-17.453zM29.23 26.047l-.922.687a2.312 2.312 0 0 0-.818 1.37 4.06 4.06 0 0 0-.117.966v2.721h-9.221V29.07c0-.326-.04-.65-.118-.966a2.312 2.312 0 0 0-.818-1.37l-.756-.563c-4.317-2.833-6.297-8.217-4.87-13.243 1.425-5.027 5.92-8.504 11.054-8.553 5.134-.05 9.692 3.339 11.212 8.336 1.52 4.998-.359 10.42-4.621 13.336h-.005zM27.647 36.532H17.86c-.676 0-1.224.558-1.224 1.247 0 .69.548 1.248 1.224 1.248h9.787c.675 0 1.222-.558 1.222-1.246 0-.687-.547-1.245-1.222-1.245v-.004zM25.198 41.272h-4.893c-.677 0-1.225.559-1.225 1.248s.548 1.247 1.225 1.247h4.893c.675 0 1.222-.557 1.222-1.245 0-.688-.547-1.245-1.222-1.245v-.005z"/>
        <path fill="#FFF" fill-opacity=".37" fill-rule="nonzero" d="M22.754 7.486c-.677 0-1.225.558-1.225 1.248 0 .689.548 1.247 1.225 1.247 3.373.005 6.108 2.79 6.115 6.227 0 .69.548 1.248 1.225 1.248.676 0 1.224-.559 1.224-1.248-.002-4.818-3.836-8.722-8.564-8.722z"/>
    </g>
</svg>
