<svg xmlns="http://www.w3.org/2000/svg" width="16" height="16" viewBox="0 0 16 16">
    <g fill="none" fill-rule="evenodd">
        <path d="M0 0h16v16H0z"/>
        <path fill="#A3A3A3" fill-rule="nonzero" d="M1.496 11.932l1.452-1.342 2.002 1.408a.682.682 0 0 0 .616.11.708.708 0 0 0 .484-.374l1.518-2.86 1.892 4.488c.11.286.396.462.704.462h.066c.33-.022.594-.264.682-.594l1.628-7.59 1.122 1.452a.744.744 0 0 0 1.056.132.744.744 0 0 0 .132-1.056L12.738 3.44c-.176-.242-.484-.33-.77-.264a.76.76 0 0 0-.572.572l-1.474 6.82-1.562-3.74a.78.78 0 0 0-.66-.462.73.73 0 0 0-.704.396l-1.87 3.498-1.804-1.276a.763.763 0 0 0-.946.066L.462 10.81a.764.764 0 0 0-.044 1.078c.308.33.77.33 1.078.044z"/>
    </g>
</svg>
