<svg xmlns="http://www.w3.org/2000/svg" xmlns:xlink="http://www.w3.org/1999/xlink" width="24" height="24" viewBox="0 0 24 24">
    <defs>
        <path id="a" d="M2.74.245V8.37H.155V.245z"/>
    </defs>
    <g fill="none" fill-rule="evenodd">
        <path d="M0 0h24v24H0z"/>
        <rect width="12" height="14.667" x="3" y="8.4" fill="#888B8F" rx="2"/>
        <path fill="#191E26" d="M9.49 13.652v5.053H8.197v-5.053H6.6v-1.119h4.5v1.12z"/>
        <g transform="scale(1 -1) rotate(45 21.875 19.33)">
            <mask id="b" fill="#fff">
                <use xlink:href="#a"/>
            </mask>
            <path fill="#888B8F" d="M1.137.4C.93.202.57.202.362.35.155.547.103.892.31 1.09c.827.886 1.344 1.969 1.344 3.15A4.322 4.322 0 0 1 .31 7.39c-.155.148-.155.296-.155.443 0 .148.052.296.207.394a.538.538 0 0 0 .775-.05A5.54 5.54 0 0 0 2.74 4.29c0-1.428-.569-2.806-1.603-3.89" mask="url(#b)"/>
        </g>
        <path fill="#888B8F" d="M18.014 9.353c-.007.286-.334.543-.583.514-.249-.03-.527-.308-.486-.559.09-.715-.11-1.352-.562-1.805a2.043 2.043 0 0 0-1.805-.562.441.441 0 0 1-.425-.132.88.88 0 0 1-.17-.317.582.582 0 0 1 .513-.583c.966-.13 1.993.165 2.655.827.661.661 1.067 1.578.863 2.617"/>
    </g>
</svg>
