<svg xmlns="http://www.w3.org/2000/svg" width="46" height="47" viewBox="0 0 46 47">
    <g fill="none" fill-rule="evenodd">
        <path d="M0 0h46v46H0z"/>
        <path fill="#FFF" fill-rule="nonzero" stroke="#FFF" stroke-width=".6" d="M34.241 30.918a1.3 1.3 0 0 0-1.288-.416l-3.793.908a1.288 1.288 0 0 0-.957 1.555c.169.692.869 1.119 1.564.95l3.02-.722 4.762 5.537-9.961 1.763-10.559-3.06a1.31 1.31 0 0 0-.63-.024l-8.557 1.788 4.605-5.585 2.652-.849a1.287 1.287 0 0 0 .836-1.622 1.298 1.298 0 0 0-1.631-.831l-3.015.965a1.295 1.295 0 0 0-.605.41l-7.182 8.71a1.283 1.283 0 0 0-.106 1.485c.286.467.838.704 1.375.592l11.844-2.474 10.538 3.054a1.297 1.297 0 0 0 .59.031l12.49-2.21c.457-.08.836-.4.993-.835.157-.435.067-.92-.235-1.271l-6.75-7.85z"/>
        <path fill="#FFF" fill-rule="nonzero" stroke="#FFF" stroke-width=".6" d="M22.471 36.853a1.3 1.3 0 0 0 .99-.455c3.737-4.38 10.062-13.363 10.062-19.252 0-6.06-4.957-10.988-11.051-10.988S11.42 11.088 11.42 17.146c0 5.89 6.326 14.873 10.063 19.252.246.289.608.455.988.455zm0-28.117c4.665 0 8.46 3.772 8.46 8.41 0 4.379-4.744 11.76-8.46 16.389-3.715-4.628-8.459-12.01-8.459-16.39 0-4.637 3.795-8.41 8.46-8.41z"/>
        <path fill="#FFF" fill-rule="nonzero" stroke="#FFF" stroke-width=".6" d="M26.55 17.146c0-2.237-1.83-4.055-4.079-4.055-2.248 0-4.078 1.819-4.078 4.055 0 2.235 1.83 4.054 4.078 4.054 2.25 0 4.079-1.819 4.079-4.054zm-5.565 0c0-.815.667-1.477 1.486-1.477.82 0 1.486.662 1.486 1.477 0 .814-.666 1.476-1.486 1.476s-1.486-.662-1.486-1.476z" opacity=".37"/>
    </g>
</svg>
