<svg xmlns="http://www.w3.org/2000/svg" width="16" height="16" viewBox="0 0 16 16">
    <g fill="none" fill-rule="evenodd">
        <path d="M0 0h16v16H0z"/>
        <path fill="#A3A3A3" fill-rule="nonzero" stroke="#A3A3A3" stroke-width=".2" d="M11.91 10.754a.452.452 0 0 0-.448-.145l-1.32.316a.448.448 0 1 0 .212.872l1.05-.252 1.656 1.926-3.464.613-3.673-1.064a.456.456 0 0 0-.219-.008l-2.976.622 1.601-1.943.923-.295a.448.448 0 1 0-.277-.854l-1.048.336a.45.45 0 0 0-.21.143l-2.499 3.03a.446.446 0 0 0-.037.516c.1.163.292.245.478.206l4.12-.86 3.666 1.061a.451.451 0 0 0 .205.012l4.344-.77a.446.446 0 1 0 .264-.733l-2.348-2.73z"/>
        <path fill="#A3A3A3" fill-rule="nonzero" stroke="#A3A3A3" stroke-width=".2" d="M7.816 12.818a.452.452 0 0 0 .344-.158c1.3-1.523 3.5-4.648 3.5-6.696 0-2.108-1.724-3.822-3.844-3.822S3.972 3.856 3.972 5.964c0 2.048 2.2 5.173 3.5 6.696.086.1.212.158.344.158zm0-9.78a2.937 2.937 0 0 1 2.942 2.926c0 1.523-1.65 4.09-2.942 5.7-1.292-1.61-2.942-4.177-2.942-5.7a2.937 2.937 0 0 1 2.942-2.925z"/>
        <path fill="#A3A3A3" fill-rule="nonzero" stroke="#A3A3A3" stroke-width=".2" d="M9.235 5.964c0-.778-.637-1.41-1.419-1.41s-1.419.632-1.419 1.41c0 .777.637 1.41 1.42 1.41.781 0 1.418-.633 1.418-1.41zm-1.936 0a.516.516 0 0 1 1.034 0 .516.516 0 0 1-1.034 0z"/>
    </g>
</svg>
