<svg xmlns="http://www.w3.org/2000/svg" width="24" height="24" viewBox="0 0 24 24">
    <g fill="none" fill-rule="evenodd">
        <path d="M0 0h24v24H0z" opacity=".227"/>
        <path fill="#888B8F" fill-rule="nonzero" d="M15.6 19.2c-1.4.6-2.55.8-4.2.8-3.8 0-7.15-2.75-7.15-7.25 0-4.7 3.4-8.75 8.6-8.75 4.05 0 6.95 2.8 6.95 6.65 0 3.35-1.9 5.45-4.35 5.45-1.1 0-1.85-.55-2-1.75h-.05c-.7 1.15-1.75 1.75-2.95 1.75-1.5 0-2.6-1.1-2.6-3 0-2.8 2.05-5.35 5.4-5.35 1 0 2.15.25 2.75.55l-.7 4.25c-.25 1.35-.05 2 .55 2 1 0 2.25-1.25 2.25-3.9 0-3-1.95-5.3-5.5-5.3-3.55.05-6.6 2.8-6.6 7.2 0 3.85 2.45 6 5.9 6 1.15 0 2.4-.25 3.35-.75l.35 1.4zm-2.05-9.5c-.2-.05-.4-.1-.7-.1-1.5 0-2.7 1.5-2.7 3.25 0 .85.4 1.45 1.15 1.45.85 0 1.75-1.1 1.95-2.4l.3-2.2z"/>
    </g>
</svg>
