<svg xmlns="http://www.w3.org/2000/svg" width="16" height="16" viewBox="0 0 16 16">
    <g fill="none" fill-rule="evenodd">
        <path d="M0 0h16v16H0z" opacity=".283"/>
        <path fill="#A3A3A3" fill-rule="nonzero" d="M14.606 8.35c0 3.631-2.975 6.606-6.606 6.606S1.394 11.981 1.394 8.35c0-1.969.875-3.806 2.362-5.075.307-.262.788-.175 1.05.175.175.306.131.7-.131.919-1.181 1.006-1.881 2.45-1.881 3.981A5.19 5.19 0 0 0 8 13.556a5.19 5.19 0 0 0 5.206-5.206 5.11 5.11 0 0 0-1.881-3.981.679.679 0 0 1-.131-.919.72.72 0 0 1 1.05-.175C13.73 4.5 14.606 6.338 14.606 8.35zM8 7.563c.394 0 .7-.307.7-.7V1.874c0-.394-.306-.7-.7-.7-.394 0-.7.306-.7.7v4.987c0 .394.306.7.7.7z"/>
    </g>
</svg>
