<svg xmlns="http://www.w3.org/2000/svg" width="46" height="46" viewBox="0 0 46 46">
    <g fill="none" fill-rule="evenodd">
        <path d="M0 0h46v46H0z" opacity=".27"/>
        <path fill="#B2D234" fill-rule="nonzero" stroke="#B2D234" d="M35.212 12H10.788C4.84 12 0 16.84 0 22.788c0 5.95 4.84 10.789 10.788 10.789h24.424C41.16 33.577 46 28.737 46 22.788 46 16.84 41.16 12 35.212 12zm0 18.98H10.788c-4.516 0-8.191-3.675-8.191-8.192 0-4.516 3.675-8.191 8.191-8.191h24.424c4.516 0 8.191 3.675 8.191 8.191 0 4.517-3.675 8.192-8.191 8.192z"/>
        <ellipse cx="34.17" cy="22.799" fill="#B2D234" fill-rule="nonzero" rx="5.358" ry="5.358"/>
    </g>
</svg>
