<svg xmlns="http://www.w3.org/2000/svg" xmlns:xlink="http://www.w3.org/1999/xlink" width="104" height="104" viewBox="0 0 104 104">
    <defs>
        <path id="a" d="M70.706 32.693v32.616H0V.076h70.706v32.617z"/>
        <path id="c" d="M35.934.072V64.84H0V.072z"/>
    </defs>
    <g fill="none" fill-rule="evenodd">
        <g transform="translate(8 2)">
            <circle cx="40" cy="52" r="40" fill="#EEF2FC"/>
            <path fill="#F3F3F3" d="M69.803 83.785h-58.9c-2.887 0-5.236-2.353-5.236-5.245V25.027a5.246 5.246 0 0 1 5.236-5.244h58.9a5.246 5.246 0 0 1 5.236 5.244V78.54c0 2.892-2.349 5.245-5.236 5.245"/>
            <path fill="#D9D9D9" d="M29.653 25.528a1 1 0 0 1-1.087 1.24c.153.212.386.384.665.414.505.054.954-.24.93-.91-.01-.32-.246-.6-.508-.744"/>
            <path fill="#454D4F" d="M29.33 23.817a2.506 2.506 0 0 0 0 5.011 2.506 2.506 0 0 0 0-5.01m0 1.67a.835.835 0 1 1-.002 1.669.835.835 0 0 1 .001-1.67"/>
            <path fill="#D9D9D9" d="M22.927 25.528a1 1 0 0 1-1.087 1.24c.154.212.386.384.665.414.506.054.954-.24.93-.91-.01-.32-.245-.6-.508-.744"/>
            <path fill="#454D4F" d="M22.604 23.817a2.506 2.506 0 0 0 0 5.011 2.506 2.506 0 0 0 0-5.01m0 1.67a.835.835 0 1 1-.002 1.669.835.835 0 0 1 .002-1.67"/>
            <g transform="translate(5 19.09)">
                <mask id="b" fill="#fff">
                    <use xlink:href="#a"/>
                </mask>
                <path fill="#454D4F" d="M5.337 2.415A3.007 3.007 0 0 0 2.335 5.42v54.543a3.008 3.008 0 0 0 3.002 3.007H65.37a3.008 3.008 0 0 0 3.001-3.007V5.421a3.007 3.007 0 0 0-3.001-3.006H5.337zM65.37 65.309H5.337C2.394 65.31 0 62.911 0 59.964V5.421C0 2.474 2.394.076 5.337.076H65.37c2.942 0 5.336 2.398 5.336 5.345v54.543c0 2.947-2.394 5.345-5.336 5.345z" mask="url(#b)"/>
            </g>
            <path fill="#454D4F" d="M73.872 33.562H14.544a1.168 1.168 0 0 1 0-2.338h59.328a1.168 1.168 0 0 1 0 2.338"/>
            <path fill="#D9D9D9" d="M16.202 25.528a1 1 0 0 1-1.088 1.24c.154.212.386.384.666.414.505.054.953-.24.93-.91-.011-.32-.246-.6-.508-.744"/>
            <path fill="#454D4F" d="M15.878 23.817a2.506 2.506 0 0 0 0 5.011 2.506 2.506 0 0 0 0-5.01m0 1.67a.835.835 0 1 1-.001 1.669.835.835 0 0 1 .001-1.67"/>
            <path fill="#BEDFFB" d="M64.169 76.042H31.873a1.975 1.975 0 0 1-1.974-1.977V41.18c0-1.091.884-1.976 1.974-1.976h32.296c1.09 0 1.973.885 1.973 1.976v32.886a1.975 1.975 0 0 1-1.973 1.977"/>
            <path fill="#ADCAE3" d="M64.558 76.3a1.753 1.753 0 0 1-1.751-1.753V40.698c0-.968.784-1.754 1.751-1.754.967 0 1.751.786 1.751 1.754v33.849c0 .968-.784 1.753-1.751 1.753"/>
            <path fill="#454D4F" d="M31.873 40.372a.808.808 0 0 0-.806.807v32.886c0 .445.361.808.806.808h32.296a.808.808 0 0 0 .806-.808V41.18a.808.808 0 0 0-.806-.807H31.873zm32.296 36.84H31.873a3.147 3.147 0 0 1-3.141-3.147V41.18a3.147 3.147 0 0 1 3.14-3.145H64.17a3.147 3.147 0 0 1 3.14 3.145v32.886a3.147 3.147 0 0 1-3.14 3.146z"/>
            <path fill="#F6856B" d="M21.968 76.042h-5.537a1.975 1.975 0 0 1-1.973-1.977V41.18c0-1.091.883-1.976 1.973-1.976h5.537c1.09 0 1.974.885 1.974 1.976v32.886a1.975 1.975 0 0 1-1.974 1.977"/>
            <path fill="#E37156" d="M22.469 76.3a1.753 1.753 0 0 1-1.752-1.753V40.698a1.753 1.753 0 0 1 3.502 0v33.849c0 .968-.783 1.753-1.75 1.753"/>
            <path fill="#454D4F" d="M16.431 40.372a.808.808 0 0 0-.806.807v32.886c0 .445.362.808.806.808h5.537a.808.808 0 0 0 .806-.808V41.18a.808.808 0 0 0-.806-.807h-5.537zm5.537 36.84h-5.537a3.147 3.147 0 0 1-3.14-3.147V41.18a3.147 3.147 0 0 1 3.14-3.145h5.537a3.147 3.147 0 0 1 3.141 3.145v32.886a3.147 3.147 0 0 1-3.14 3.146z"/>
            <g>
                <g transform="translate(53 .088)">
                    <mask id="d" fill="#fff">
                        <use xlink:href="#c"/>
                    </mask>
                    <path fill="#FFF" d="M23.303 29.726h.001m-10.7.01l-.007.002c.002 0 .005 0 .007-.002m-.008.003h-.003.003m13.227 3.491v0m-15.713.015v0m7.872 31.595c-7.624.001-14.715-4.896-17.135-12.542a17.843 17.843 0 0 1 1.182-13.696 17.828 17.828 0 0 1 8.077-7.877V6.435v-.038A6.333 6.333 0 0 1 16.432.072h3.069c3.273 0 5.974 2.499 6.294 5.69h1.801l.118.001a5.493 5.493 0 0 1 5.329 5.53V19.982a5.5 5.5 0 0 1-5.487 5.449h-1.73v5.295a17.985 17.985 0 0 1 9.268 10.731c2.99 9.442-2.26 19.556-11.703 22.545-1.796.569-3.618.84-5.41.84" mask="url(#d)"/>
                </g>
                <path fill="#F3F3F3" d="M70.935 41.169a5.797 5.797 0 0 0-4.053 1.669 5.716 5.716 0 0 0-1.701 4.061 5.717 5.717 0 0 0 1.669 4.076 5.717 5.717 0 0 0 4.062 1.701h.023a5.718 5.718 0 0 0 4.052-1.669 5.716 5.716 0 0 0 1.701-4.062 5.716 5.716 0 0 0-1.669-4.075 5.718 5.718 0 0 0-4.052-1.701h-.032zm.019 19.293a13.33 13.33 0 0 1-6.199-1.524 13.402 13.402 0 0 1-6.645-7.902 13.401 13.401 0 0 1 .888-10.286A13.408 13.408 0 0 1 66.3 34.31v.17h.002v-.17c.132-.05.266-.096.4-.14l.207-.07.668-.222V6.484c0-1.02.832-1.852 1.854-1.852H72.5c1.022 0 1.854.831 1.854 1.854v3.835h6.241c.544.015.984.474.975 1.022v8.696a1.02 1.02 0 0 1-1.015 1.007h-6.201v12.829l.874.29a13.529 13.529 0 0 1 8.602 8.729c2.245 7.091-1.698 14.687-8.79 16.932-1.333.422-2.709.636-4.087.636z"/>
                <path fill="#454D4F" d="M70.935 42.446c-1.172 0-2.32.473-3.153 1.299a4.447 4.447 0 0 0-1.323 3.16 4.447 4.447 0 0 0 1.298 3.17 4.448 4.448 0 0 0 3.16 1.323h.018c1.189 0 2.308-.46 3.152-1.298a4.447 4.447 0 0 0 1.324-3.16 4.447 4.447 0 0 0-1.298-3.17 4.448 4.448 0 0 0-3.153-1.324h-.025m0 11.188h-.027a6.668 6.668 0 0 1-4.738-1.985 6.668 6.668 0 0 1-1.947-4.754 6.669 6.669 0 0 1 1.985-4.738 6.76 6.76 0 0 1 4.728-1.947h.037a6.67 6.67 0 0 1 4.727 1.985 6.72 6.72 0 0 1-.038 9.492 6.668 6.668 0 0 1-4.727 1.947M70.953 61.74c-2.336 0-4.653-.56-6.786-1.668a14.671 14.671 0 0 1-7.275-8.65 14.67 14.67 0 0 1 .971-11.26 14.668 14.668 0 0 1 8.437-7.206V6.486a3.135 3.135 0 0 1 3.132-3.132h3.069a3.135 3.135 0 0 1 3.131 3.132v2.558H80.626a2.29 2.29 0 0 1 2.223 2.318v3.127a1.486 1.486 0 0 1 0 .054v5.496a2.3 2.3 0 0 1-2.293 2.285h-4.924v10.63a14.734 14.734 0 0 1 3.835 1.933 1.118 1.118 0 0 1-1.286 1.829 12.514 12.514 0 0 0-3.419-1.695 1.914 1.914 0 0 1-1.365-1.885v-11.13a1.92 1.92 0 0 1 1.917-1.918h5.242a.057.057 0 0 0 .057-.056v-5.49-.026-3.164-.023a.05.05 0 0 0-.042-.05h-5.257a1.92 1.92 0 0 1-1.917-1.917V6.486a.897.897 0 0 0-.896-.896h-3.069a.897.897 0 0 0-.896.896v26.648a1.916 1.916 0 0 1-1.362 1.889 12.44 12.44 0 0 0-7.326 6.169 12.45 12.45 0 0 0-.825 9.556c2.086 6.587 9.141 10.25 15.73 8.164 6.587-2.085 10.25-9.141 8.164-15.73a12.489 12.489 0 0 0-2.067-3.927 1.118 1.118 0 0 1 1.762-1.375 14.712 14.712 0 0 1 2.437 4.628c2.458 7.763-1.859 16.078-9.622 18.536-1.469.465-2.975.696-4.473.696"/>
            </g>
        </g>
        <path d="M0 0h104v104H0z" opacity=".098"/>
    </g>
</svg>
