<svg xmlns="http://www.w3.org/2000/svg" xmlns:xlink="http://www.w3.org/1999/xlink" width="104" height="104" viewBox="0 0 104 104">
    <defs>
        <path id="a" d="M68.455 45.93H.026V.112h68.43V45.93z"/>
        <path id="c" d="M.17.077h2.647v41.286H.17V.077z"/>
    </defs>
    <g fill="none" fill-rule="evenodd">
        <g transform="translate(11 8)">
            <circle cx="40" cy="46" r="40" fill="#EEF2FC"/>
            <g transform="translate(5.789 39.993)">
                <mask id="b" fill="#fff">
                    <use xlink:href="#a"/>
                </mask>
                <path fill="#F3F3F3" d="M34.24.112C15.345.112.027 15.43.027 34.327c0 .506.013 1.01.035 1.51 8.58 6.215 20.72 10.093 34.18 10.093s25.6-3.878 34.18-10.093c.021-.5.034-1.004.034-1.51C68.455 15.43 53.137.112 34.241.112" mask="url(#b)"/>
            </g>
            <path fill="#F6856B" d="M72.117 10.467c.484 0 .878.394.878.878v17.067a.879.879 0 0 1-.878.878h-9.67a.879.879 0 0 1-.877-.878V11.345c0-.484.393-.878.878-.878h9.67M59.08 4.564c.485 0 .88.395.88.882v17.137a.883.883 0 0 1-.88.881H41.555a.883.883 0 0 1-.882-.881V5.446c0-.487.396-.882.882-.882h17.523"/>
            <path fill="#E47156" d="M59.836 4.564c.069 0 .125.395.125.882v17.137c0 .486-.056.881-.125.881h-2.483c-.069 0-.125-.395-.125-.881V5.446c0-.487.056-.882.125-.882h2.483M72.643 10.467c.09 0 .163.394.163.878v17.067c0 .484-.073.878-.163.878h-1.8c-.09 0-.163-.394-.163-.878V11.345c0-.484.074-.878.164-.878h1.799"/>
            <g transform="translate(38.488 .112)">
                <mask id="d" fill="#fff">
                    <use xlink:href="#c"/>
                </mask>
                <path fill="#454D4F" d="M1.494 41.363C.763 41.363.17 40.77.17 40.04V1.4a1.323 1.323 0 1 1 2.646 0v38.64c0 .73-.593 1.323-1.323 1.323" mask="url(#d)"/>
            </g>
            <path fill="#454D4F" d="M58.485 2.559H42.15a3.468 3.468 0 0 0-3.468 3.468v15.975a3.468 3.468 0 0 0 3.468 3.468h16.335a3.468 3.468 0 0 0 3.468-3.468V6.027a3.468 3.468 0 0 0-3.468-3.468m0 2.646c.453 0 .822.368.822.822v15.975a.823.823 0 0 1-.822.822H42.15a.823.823 0 0 1-.822-.822V6.027c0-.454.369-.822.822-.822h16.335"/>
            <path fill="#E0E0E0" d="M50.194 58.712a4.399 4.399 0 0 1-.391 7.487c1.402.428 2.99.04 4.025-1.126a3.873 3.873 0 0 0-.323-5.462 3.861 3.861 0 0 0-3.311-.899M26.281 51.658a2.024 2.024 0 0 1-.18 3.445 1.781 1.781 0 0 0 1.853-.518 1.777 1.777 0 1 0-1.672-2.927M52.874 42.027a3.767 3.767 0 0 1-.335 6.412 3.315 3.315 0 0 0 3.447-.964 3.317 3.317 0 0 0-.276-4.678 3.307 3.307 0 0 0-2.836-.77"/>
            <path fill="#454D4F" d="M71.808 8.423h-9.051a3.468 3.468 0 0 0-3.468 3.468v15.975a3.468 3.468 0 0 0 3.468 3.468h9.05a3.468 3.468 0 0 0 3.469-3.468V11.891a3.468 3.468 0 0 0-3.468-3.468m0 2.646c.453 0 .822.369.822.822v15.975a.823.823 0 0 1-.822.822h-9.051a.823.823 0 0 1-.822-.822V11.891c0-.453.369-.822.822-.822h9.05M26.5 49.549a3.873 3.873 0 0 0-3.87 3.869 3.873 3.873 0 0 0 3.87 3.869 3.873 3.873 0 0 0 3.868-3.87A3.873 3.873 0 0 0 26.5 49.55m0 2.268a1.6 1.6 0 1 1 0 3.202 1.6 1.6 0 0 1 0-3.202M50.973 58.924c-1.99 0-3.61 1.619-3.61 3.61 0 1.99 1.62 3.608 3.61 3.608 1.99 0 3.61-1.619 3.61-3.609s-1.62-3.61-3.61-3.61m0 9.865a6.262 6.262 0 0 1-6.256-6.255 6.263 6.263 0 0 1 6.256-6.255 6.263 6.263 0 0 1 6.255 6.255 6.262 6.262 0 0 1-6.255 6.255M37.05 76.017c-.73 0-1.323-.592-1.323-1.323 0-4.428-3.603-8.03-8.03-8.03-4.429 0-8.031 3.602-8.031 8.03a1.323 1.323 0 1 1-2.646 0c0-5.887 4.79-10.676 10.676-10.676 5.888 0 10.677 4.79 10.677 10.676 0 .73-.592 1.323-1.323 1.323M53.704 49.895c-.767 0-1.545-.18-2.27-.56a4.919 4.919 0 0 1-2.075-6.63 1.323 1.323 0 0 1 2.345 1.226 2.27 2.27 0 0 0 .957 3.06 2.27 2.27 0 0 0 3.06-.957 1.322 1.322 0 1 1 2.344 1.227 4.917 4.917 0 0 1-4.361 2.634M74.363 75.856c-.73 0-1.323-.592-1.323-1.323 0-2.76-.34-5.502-1.012-8.15a1.323 1.323 0 1 1 2.565-.65 35.837 35.837 0 0 1 1.093 8.8c0 .73-.592 1.323-1.323 1.323"/>
            <path fill="#454D4F" d="M5.6 75.856c-.73 0-1.323-.592-1.323-1.323 0-19.687 16.017-35.704 35.704-35.704 7.28 0 14.282 2.176 20.251 6.294a35.67 35.67 0 0 1 12.915 16.163 1.323 1.323 0 1 1-2.457.982 33.03 33.03 0 0 0-11.96-14.967 32.868 32.868 0 0 0-18.749-5.826c-18.228 0-33.058 14.83-33.058 33.058 0 .73-.592 1.323-1.323 1.323"/>
        </g>
        <path d="M0 0h104v104H0z" opacity=".098"/>
    </g>
</svg>
