<svg xmlns="http://www.w3.org/2000/svg" xmlns:xlink="http://www.w3.org/1999/xlink" viewBox="0 0 184 80"><defs><style>.cls-1{fill:none;}.cls-2{fill:url(#linear-gradient);}.cls-3{fill:#888b8f;}.cls-4{fill:url(#linear-gradient-2);}</style><linearGradient id="linear-gradient" x1="98.03" y1="40" x2="98.03" y2="23.94" gradientUnits="userSpaceOnUse"><stop offset="0" stop-color="#56cc33"/><stop offset="1" stop-color="#96d740"/></linearGradient><linearGradient id="linear-gradient-2" x1="3.92" y1="42.46" x2="76.02" y2="42.46" xlink:href="#linear-gradient"/></defs><title>img_magellan_logo_onwhite</title><g id="Layer_2" data-name="Layer 2"><g id="Layer_2-2" data-name="Layer 2"><rect class="cls-1" width="184" height="80"/><path class="cls-2" d="M102,40V30.91l-2.88,5.63H96.93L94,30.94V40H90.65V23.94h3L98,32.61l4.32-8.67h3.07V40Z"/><path class="cls-3" d="M118.3,40l-.9-2.78h-5.54q-.26.7-.5,1.41t-.5,1.38h-3.49l5.89-16.06h2.62l6,16.06Zm-3.62-10.88-1.86,5.25h3.62Z"/><path class="cls-3" d="M135,36.29a5,5,0,0,1-1.18,2,5.87,5.87,0,0,1-2.13,1.45,6.82,6.82,0,0,1-2.45.43,6,6,0,0,1-2.43-.48,6.25,6.25,0,0,1-1.92-1.31,4.29,4.29,0,0,1-1-1.3,6.08,6.08,0,0,1-.46-1.47,10.34,10.34,0,0,1-.16-1.68q0-.9,0-2t0-1.92a10.69,10.69,0,0,1,.16-1.7,6.07,6.07,0,0,1,.46-1.49,4.28,4.28,0,0,1,1-1.3,5.63,5.63,0,0,1,1.9-1.36,6.12,6.12,0,0,1,2.45-.46,6.6,6.6,0,0,1,2.48.43,5.41,5.41,0,0,1,1.82,1.18,6,6,0,0,1,1.2,1.71,7.35,7.35,0,0,1,.61,2H132a3.17,3.17,0,0,0-.94-1.73,2.63,2.63,0,0,0-1.81-.61,2.37,2.37,0,0,0-1.1.24,2.76,2.76,0,0,0-.78.59,2.59,2.59,0,0,0-.37.54,2.76,2.76,0,0,0-.22.77,10.28,10.28,0,0,0-.11,1.22q0,.74,0,1.86t0,1.86a10.3,10.3,0,0,0,.11,1.22,3,3,0,0,0,.22.78,1.87,1.87,0,0,0,.37.53,2.44,2.44,0,0,0,1.89.8,2.71,2.71,0,0,0,1.2-.26,2.9,2.9,0,0,0,.88-.64,2.72,2.72,0,0,0,.74-2v-.48h-2.91V30.94h6.21v2.43A10,10,0,0,1,135,36.29Z"/><path class="cls-3" d="M138.52,40V23.94h10.78v3h-7.46v3.46h6.37v3h-6.37V37h7.46v3Z"/><path class="cls-3" d="M151.93,40V23.94h3.33V37h6.85v3Z"/><path class="cls-3" d="M170.78,34.82v3.87h-2.91V34.82H164V31.9h3.87V28.06h2.91V31.9h3.84v2.91Z"/><path class="cls-3" d="M90.65,64V47.94H94V61h6.85v3Z"/><path class="cls-3" d="M112,64l-.9-2.78h-5.54q-.26.7-.5,1.41t-.5,1.38h-3.49l5.89-16.06h2.62l6,16.06Zm-3.62-10.88-1.86,5.25h3.62Z"/><path class="cls-3" d="M127.71,64l-6.85-10V64h-3.33V47.94h2.69L127,57.79V47.94h3.39V64Z"/><rect class="cls-1" width="80" height="80"/><path class="cls-3" d="M34.65,12.7A.31.31,0,0,0,35,13a27.76,27.76,0,0,1,5-.45,27.37,27.37,0,0,1,14.94,4.41.31.31,0,0,0,.43-.09l2.42-3.64a.31.31,0,0,0-.09-.44A32.35,32.35,0,0,0,40,7.5,32.72,32.72,0,0,0,34.07,8a.31.31,0,0,0-.25.37Z"/><path class="cls-3" d="M64.78,28.07l4.5-2.17a32.44,32.44,0,0,0-3.53-5.72.31.31,0,0,0-.44-.06L61.86,22.8a.31.31,0,0,0-.05.44A27.46,27.46,0,0,1,64.78,28.07Z"/><path class="cls-3" d="M72.41,37.58l-5,.37c0,.68.08,1.37.08,2.05a27.39,27.39,0,0,1-4.28,14.74.31.31,0,0,0,.09.43L67,57.56a.31.31,0,0,0,.43-.09A32.38,32.38,0,0,0,72.5,40C72.5,39.19,72.47,38.38,72.41,37.58Z"/><path class="cls-3" d="M24,17.62a.31.31,0,0,0,.08-.43L21.59,13.6a.31.31,0,0,0-.44-.08,32.52,32.52,0,0,0-8,8.13l4.1,2.86A27.56,27.56,0,0,1,24,17.62Z"/><path class="cls-3" d="M41,67.48l-1,0A27.49,27.49,0,0,1,13.74,31.85L9.17,29.72A32.49,32.49,0,0,0,40,72.5l1.21,0a.31.31,0,0,0,.3-.33l-.2-4.37A.31.31,0,0,0,41,67.48Z"/><path class="cls-4" d="M75.79,30.53a6.88,6.88,0,0,0-13-.88,6.19,6.19,0,0,1-4.1,3.55h0A2.22,2.22,0,0,1,56.12,32a18,18,0,0,0-10.21-9,3.12,3.12,0,0,1-2.07-3.32l.35-3A3.52,3.52,0,0,1,46,14a4.38,4.38,0,1,0-5.36-.59,3.52,3.52,0,0,1,1.05,3.1l-.34,2.84a3.13,3.13,0,0,1-2.84,2.76A18,18,0,0,0,26,28.7a2.74,2.74,0,0,1-3.34.73,6.16,6.16,0,0,1-3.28-4,6.25,6.25,0,1,0-3.59,7.22,5.43,5.43,0,0,1,5.2.16h0a2.8,2.8,0,0,1,1.49,3.15A17.62,17.62,0,0,0,22,38.78,17.86,17.86,0,0,0,24,48.13l12-12.45h9l-1,2.76-8.28,8.38L38,40.38,20.7,58.22h0l-6.24,6.34a4.61,4.61,0,0,1-4,1.3,5.63,5.63,0,1,0,4.65,4.54,4.72,4.72,0,0,1,1.25-4.15l9.48-9.63a4.71,4.71,0,0,1,5.63-.8,17.88,17.88,0,0,0,13.87,1.38,4,4,0,0,1,4.5,1.6,8.69,8.69,0,0,1,1,7.71,9.38,9.38,0,1,0,10-6.12l-.62-.06a8.64,8.64,0,0,1-6.67-3.92h0a4,4,0,0,1,.3-4.82A17.89,17.89,0,0,0,58,41.22a17.54,17.54,0,0,0,0-2.05,2.32,2.32,0,0,1,1.72-2.35h0a6.16,6.16,0,0,1,5.32,1,6.87,6.87,0,0,0,10.78-7.27Zm-59.4-3.33A3.13,3.13,0,1,1,13,23.77,3.13,3.13,0,0,1,16.39,27.19ZM56.52,69.13a3.11,3.11,0,0,1,1.3-2A3.08,3.08,0,0,1,60,66.59h0a3.13,3.13,0,1,1-3.46,2.54ZM48.73,51.37H43.55l2.76-7.45L39,51.37H34.43L50,35.68h4.51ZM73.31,33.66a4.38,4.38,0,0,1-8.46-.5A4.29,4.29,0,0,1,65,31a4.38,4.38,0,0,1,4.7-3h0a4.36,4.36,0,0,1,3.75,3.49A4.27,4.27,0,0,1,73.31,33.66Z"/></g></g></svg>