<svg xmlns="http://www.w3.org/2000/svg" xmlns:xlink="http://www.w3.org/1999/xlink" width="24" height="24" viewBox="0 0 24 24">
    <defs>
        <path id="a" d="M.049.04v3.75h5.158a4.464 4.464 0 0 1-1.913 2.927V9.15h3.097C8.204 7.462 9.25 4.976 9.25 2.023c0-.688-.06-1.349-.174-1.983H.049z"/>
        <path id="c" d="M.045.05v2.512c1.577 3.169 4.818 5.342 8.564 5.342 2.587 0 4.757-.869 6.343-2.35l-3.098-2.432c-.858.582-1.956.925-3.245.925C6.113 4.047 4 2.342 3.246.05H.045z"/>
        <path id="e" d="M1.068.008a9.785 9.785 0 0 0-1.02 4.355c0 1.564.37 3.045 1.02 4.354l3.201-2.512a5.89 5.89 0 0 1-.3-1.842c0-.64.109-1.26.3-1.843V.008H1.068z"/>
        <path id="g" d="M.045 5.346l3.201 2.512C4 5.566 6.113 3.861 8.61 3.861c1.407 0 2.67.49 3.664 1.45L15.02 2.53C13.361.965 11.192.004 8.61.004 4.863.004 1.622 2.177.045 5.346z"/>
    </defs>
    <g fill="none" fill-rule="evenodd">
        <path d="M0 0h24v24H0z" opacity=".542"/>
        <g transform="translate(12.623 10.942)">
            <mask id="b" fill="#fff">
                <use xlink:href="#a"/>
            </mask>
            <path fill="#3E82F1" d="M-5.275 14.536h19.848V-5.347H-5.275z" mask="url(#b)"/>
        </g>
        <g transform="translate(4.063 14.537)">
            <mask id="d" fill="#fff">
                <use xlink:href="#c"/>
            </mask>
            <path fill="#32A753" d="M-5.28 13.29h25.556V-5.336H-5.28z" mask="url(#d)"/>
        </g>
        <g transform="translate(3.04 8.382)">
            <mask id="f" fill="#fff">
                <use xlink:href="#e"/>
            </mask>
            <path fill="#F9BB00" d="M-5.276 14.104h14.87V-5.38h-14.87z" mask="url(#f)"/>
        </g>
        <g transform="translate(4.063 3.044)">
            <mask id="h" fill="#fff">
                <use xlink:href="#g"/>
            </mask>
            <path fill="#E74133" d="M-5.28 13.245h25.626V-5.382H-5.28z" mask="url(#h)"/>
        </g>
    </g>
</svg>
