<svg xmlns="http://www.w3.org/2000/svg" width="55" height="56" viewBox="0 0 55 56">
    <g fill="none" fill-rule="evenodd">
        <path d="M.134 54.603h54v-54h-54z"/>
        <path fill="#191E26" d="M20.757 21.302h3.276l5.733 13.77c-.927.391-1.935.62-2.989.68l-6.02-14.45zM18.44 35.907a12.007 12.007 0 0 0 7.82 2.887c2.985 0 5.713-1.09 7.82-2.887l-6.086-14.605h3.276l5.038 12.1a12.007 12.007 0 0 0 2.015-6.672c0-6.662-5.401-12.063-12.063-12.063-6.663 0-12.064 5.4-12.064 12.063 0 2.468.744 4.76 2.015 6.672l3.284-7.888 1.638 3.93-2.693 6.463z"/>
        <path fill="#B2D234" d="M42.373 36.18a1.206 1.206 0 0 1-1.073-1.757 16.702 16.702 0 0 0 1.85-7.693c0-.237-.005-.472-.015-.706a1.206 1.206 0 0 1 2.41-.1 19.099 19.099 0 0 1-2.098 9.598 1.205 1.205 0 0 1-1.074.658M42.389 19.722c-.44 0-.863-.24-1.076-.658-2.904-5.688-8.67-9.222-15.052-9.222-5.284 0-10.166 2.404-13.393 6.599a1.207 1.207 0 0 1-1.911-1.472c3.687-4.792 9.265-7.54 15.304-7.54 7.292 0 13.883 4.038 17.2 10.538a1.206 1.206 0 0 1-1.072 1.755M26.26 46.032c-10.642 0-19.3-8.659-19.3-19.302 0-1.767.238-3.52.71-5.207a1.208 1.208 0 0 1 2.324.65 16.966 16.966 0 0 0-.622 4.557c0 9.313 7.576 16.89 16.889 16.89.185 0 .368-.004.551-.01a1.202 1.202 0 0 1 1.246 1.167 1.208 1.208 0 0 1-1.168 1.245c-.209.006-.418.01-.63.01"/>
        <path fill="#B2D234" d="M10.338 20.69a1.886 1.886 0 1 1-.385-3.753 1.886 1.886 0 0 1 .385 3.752m-.581-5.625a3.779 3.779 0 0 0-3.363 3.368 3.77 3.77 0 0 0 4.137 4.132 3.78 3.78 0 0 0 3.364-3.367 3.77 3.77 0 0 0-4.138-4.133M39.932 44.98a1.882 1.882 0 0 1-.784 1.212c-.488.337-.978.36-1.303.32a1.867 1.867 0 0 1-1.318-.8 1.875 1.875 0 0 1-.303-1.411c.052-.287.224-.825.782-1.212a1.86 1.86 0 0 1 1.304-.319c.313.039.901.195 1.318.8.387.558.356 1.123.304 1.41m-1.91-6.186a5.73 5.73 0 1 0 0 11.46 5.73 5.73 0 0 0 0-11.46M32.142 8.786a3.618 3.618 0 1 1-7.237.001 3.618 3.618 0 0 1 7.237-.001"/>
        <path fill="#191E26" d="M11.786 44.524a3.318 3.318 0 1 1-6.635 0 3.318 3.318 0 0 1 6.635 0"/>
        <path fill="#B2D234" d="M43.873 24.725a2.639 2.639 0 1 1 0-5.277 2.639 2.639 0 0 1 0 5.277m0-6.786a4.147 4.147 0 1 0 0 8.294 4.147 4.147 0 0 0 0-8.294"/>
    </g>
</svg>
