<svg xmlns="http://www.w3.org/2000/svg" width="184" height="81" viewBox="0 0 184 81">
    <g fill="none" fill-rule="evenodd">
        <path d="M80 80h104V0H80z"/>
        <path fill="#FFF" d="M114.686 29.121l-1.857 5.248h3.617l-1.76-5.248zm3.614 10.88l-.894-2.784h-5.537c-.17.468-.335.94-.496 1.408-.16.47-.326.928-.497 1.375h-3.487l5.889-16.065h2.623L121.855 40H118.3zm16.704-3.712a4.973 4.973 0 0 1-1.184 1.984c-.661.682-1.37 1.168-2.128 1.455a6.822 6.822 0 0 1-2.447.432c-.896 0-1.708-.16-2.432-.48a6.215 6.215 0 0 1-1.92-1.311 4.28 4.28 0 0 1-.96-1.297 6.05 6.05 0 0 1-.464-1.472 10.128 10.128 0 0 1-.16-1.68c-.011-.596-.016-1.248-.016-1.951 0-.684.005-1.323.016-1.92.009-.598.064-1.162.16-1.697.096-.532.25-1.028.464-1.487.213-.459.532-.89.96-1.297a5.623 5.623 0 0 1 1.904-1.359c.715-.309 1.53-.465 2.448-.465.939 0 1.765.145 2.48.432a5.405 5.405 0 0 1 1.824 1.185c.5.5.9 1.071 1.2 1.711.298.641.5 1.313.608 2.016h-3.36c-.171-.746-.485-1.322-.944-1.727-.46-.406-1.062-.609-1.808-.609-.428 0-.795.08-1.104.24a2.73 2.73 0 0 0-.784.592c-.15.172-.271.351-.37.545a2.736 2.736 0 0 0-.222.767c-.054.321-.091.725-.113 1.217-.021.49-.031 1.11-.031 1.856s.01 1.365.03 1.855c.023.492.06.897.114 1.217.052.32.128.58.223.783.098.203.219.379.369.527.21.237.474.428.784.577.309.15.676.224 1.104.224.447 0 .848-.084 1.199-.256.353-.17.646-.384.88-.64.49-.49.737-1.162.737-2.016v-.48h-2.912v-2.815h6.208v2.432c0 1.195-.118 2.164-.353 2.912zm3.52 3.711V23.936h10.784v2.976h-7.457v3.457h6.37v3.008h-6.37v3.615h7.457V40h-10.784zm13.409 0V23.936h3.327v13.056h6.849V40h-10.176zm-61.28 24V47.936h3.328v13.056h6.848V64H90.652zm21.312 0l-.896-2.783h-5.535c-.171.468-.336.94-.497 1.408-.16.47-.325.928-.496 1.375h-3.488l5.889-16.065h2.624L115.518 64h-3.553zm-3.615-10.879l-1.856 5.248h3.616l-1.76-5.248zM127.709 64l-6.849-9.951V64h-3.327V47.936h2.688l6.816 9.857v-9.857h3.392V64h-2.72z"/>
        <path d="M170.78 34.816v3.873h-2.913v-3.873h-3.87v-2.912h3.87v-3.84h2.913v3.84h3.84v2.912z"/>
        <path fill="#B2D234" d="M102.046 40v-9.088l-2.88 5.633h-2.24l-2.944-5.6V40h-3.33V23.936h3.04l4.322 8.673 4.32-8.673h3.07V40z"/>
        <path d="M0 80h80V0H0z"/>
        <path fill="#B2D234" d="M64.799 27.018c-3.342-6.36-9.057-11.285-15.96-13.588a6.002 6.002 0 0 1-10.809-1.361c-8.128.567-15.308 4.625-20.057 10.677A6.235 6.235 0 0 1 19.5 27.51c-.29 2.924-2.652 5.292-5.578 5.582a6.402 6.402 0 0 1-1.057.02A27.82 27.82 0 0 0 12 39.998c0 15.44 12.56 28 28 28 .305 0 .607-.012.91-.022l.134 3.996c-.347.011-.695.026-1.044.026C22.355 72 8 57.645 8 40c0-2.922.4-5.752 1.14-8.443a6.242 6.242 0 0 1-2.077-5.315c.285-2.925 2.652-5.293 5.576-5.583a6.332 6.332 0 0 1 1.834.081c5.5-7.274 14.027-12.138 23.692-12.687a6.002 6.002 0 0 1 11.54 1.452c8.174 2.61 14.931 8.423 18.79 15.956a6.875 6.875 0 0 1 3.468 13.136c.024.466.037.933.037 1.404a31.776 31.776 0 0 1-3.496 14.514L64.89 52.8a27.814 27.814 0 0 0 3.092-13.734 6.876 6.876 0 0 1-3.183-12.05zm-51.197 2.966a3.135 3.135 0 0 0 2.789-2.79 3.127 3.127 0 0 0-3.431-3.428 3.134 3.134 0 0 0-2.788 2.792 3.127 3.127 0 0 0 3.43 3.426zm55.597 6.69a4.375 4.375 0 1 0 .002-8.749 4.375 4.375 0 0 0-.002 8.75z"/>
        <path fill="#B2D234" d="M62.666 70.256a3.118 3.118 0 0 1-1.3 2.009 3.088 3.088 0 0 1-2.16.53 3.096 3.096 0 0 1-2.186-1.326 3.108 3.108 0 0 1-.502-2.34 3.111 3.111 0 0 1 1.296-2.008 3.09 3.09 0 0 1 2.163-.53h-.001c.52.065 1.495.325 2.186 1.327.641.926.59 1.862.504 2.338M59.5 60a9.5 9.5 0 1 0 0 19 9.5 9.5 0 0 0 0-19"/>
        <path fill="#FFF" d="M16.002 69.5a5.5 5.5 0 1 1-11 0 5.5 5.5 0 0 1 11 0M37.002 48H31.75l15.002-15H52L37.002 48zm11.926 0h-5l.771-3.699 6.319-6.319L48.928 48zm-8.926-28c-11.047 0-20 8.954-20 20 0 2.225.377 4.357 1.047 6.355L34.406 33h7.499L23.549 51.359C27.158 56.576 33.176 60 40.002 60c11.045 0 20-8.954 20-20s-8.955-20-20-20z"/>
        <path d="M0 80h184V0H0z"/>
    </g>
</svg>
